<?xml version="1.0" encoding="iso-8859-1"?>
<!-- Generator: Adobe Illustrator 19.0.0, SVG Export Plug-In . SVG Version: 6.00 Build 0)  -->
<svg version="1.1" id="Capa_1" xmlns="http://www.w3.org/2000/svg" xmlns:xlink="http://www.w3.org/1999/xlink" x="0px" y="0px"
	 viewBox="0 0 512 512" style="enable-background:new 0 0 512 512;" xml:space="preserve">
<g>
	<path style="fill:#35495E;" d="M91.101,386.737l-2.825,1.677l-58.262,34.957C11.401,434.53,0.008,454.635,0,476.337V512h388.414
		v-35.663c-0.008-21.701-11.401-41.807-30.014-52.966l-58.262-34.957l-2.825-1.677H91.101z"/>
	<path style="fill:#95A5A5;" d="M300.138,210.008v23.393c-0.003,8.803-3.495,17.247-9.71,23.481
		c-4.702,4.734-7.896,10.755-9.181,17.302c-4.187,18.205-12.223,35.302-23.57,50.141c-1.076,1.492-1.662,3.281-1.677,5.12v27.454
		c-0.029,1.549,0.368,3.075,1.148,4.414L256,370.759l-61.793,26.483l-61.793-26.483l-1.148-9.445
		c0.78-1.338,1.177-2.865,1.148-4.414v-27.454c-0.015-1.839-0.601-3.628-1.677-5.12c-11.346-14.839-19.383-31.936-23.57-50.141
		c-1.284-6.547-4.479-12.568-9.181-17.302c-6.215-6.235-9.707-14.678-9.71-23.481v-31.338c0.005-5.151,1.214-10.23,3.531-14.83
		l1.766-3.708c2.317-4.601,3.526-9.679,3.531-14.83v-45.109c-0.005-18.731,7.434-36.697,20.679-49.942s31.211-20.684,49.942-20.679
		h52.966c20.41-0.029,39.829,8.795,53.23,24.188L300.138,210.008z"/>
	<g>
		<path style="fill:#BDC3C7;" d="M194.207,388.414l-35.31,35.31l-67.796-36.988l36.988-22.246c1.327-0.753,2.425-1.851,3.178-3.178
			l1.148,0.618L194.207,388.414z"/>
		<path style="fill:#BDC3C7;" d="M297.313,386.737l-67.796,36.988l-35.31-35.31L256,361.931l1.148-0.618
			c0.753,1.327,1.851,2.425,3.178,3.178L297.313,386.737z"/>
	</g>
	<polygon style="fill:#CC4B4C;" points="229.517,512 158.897,512 185.379,441.379 203.034,441.379 	"/>
	<polygon style="fill:#ECF0F1;" points="185.379,441.379 158.897,512 88.276,388.414 91.101,386.737 158.897,423.724 
		166.488,416.132 	"/>
	<polygon style="fill:#802F34;" points="221.926,416.132 203.034,441.379 185.379,441.379 166.488,416.132 194.207,388.414 	"/>
	<polygon style="fill:#ECF0F1;" points="300.138,388.414 229.517,512 203.034,441.379 221.926,416.132 229.517,423.724 
		297.313,386.737 	"/>
	<circle style="fill:#71C285;" cx="388.414" cy="123.586" r="123.586"/>
	<path style="fill:#E6E7E8;" d="M370.759,194.207c-1.911,0.001-3.77-0.62-5.297-1.767l-35.31-26.483
		c-2.522-1.893-3.844-4.987-3.466-8.118c0.378-3.131,2.397-5.822,5.297-7.06c2.9-1.238,6.241-0.835,8.763,1.058l27.31,20.483
		l65.66-114.905c2.419-4.233,7.81-5.703,12.043-3.284c4.233,2.419,5.703,7.81,3.284,12.043l-70.621,123.586
		c-1.257,2.198-3.396,3.752-5.875,4.267C371.959,194.146,371.359,194.206,370.759,194.207z"/>
</g>
<g>
</g>
<g>
</g>
<g>
</g>
<g>
</g>
<g>
</g>
<g>
</g>
<g>
</g>
<g>
</g>
<g>
</g>
<g>
</g>
<g>
</g>
<g>
</g>
<g>
</g>
<g>
</g>
<g>
</g>
</svg>
